<svg width="279" height="104" viewBox="0 0 279 104" fill="none" xmlns="http://www.w3.org/2000/svg">
<g clip-path="url(#clip0_2881_4467)">
<path d="M56.1915 22.1799V69.5391H53.0893V28.6599L34.8902 69.5391H32.4085L14.1404 28.6599V69.5391H11.0383V22.1799H14.3472L33.6493 65.4718L52.9515 22.1799H56.1915ZM101.297 48.3067C101.297 49.9612 101.251 51.202 101.159 52.0293H68.8283C68.9202 55.3842 69.6556 58.2106 71.0343 60.5084C72.413 62.8063 74.2283 64.5297 76.4802 65.6786C78.7322 66.8276 81.1909 67.402 83.8564 67.402C87.533 67.402 90.6122 66.5059 93.0939 64.7135C95.5756 62.8752 97.1381 60.3935 97.7815 57.2684H101.022C100.286 61.0829 98.4019 64.185 95.3687 66.5748C92.3356 68.9186 88.4981 70.0906 83.8564 70.0906C80.3636 70.0906 77.2385 69.3093 74.4811 67.7467C71.7236 66.1842 69.5636 63.9552 68.0011 61.0599C66.4385 58.1186 65.6573 54.6948 65.6573 50.7884C65.6573 46.882 66.4156 43.4812 67.9322 40.5859C69.4947 37.6905 71.6547 35.4846 74.4122 33.968C77.1696 32.4054 80.3177 31.6242 83.8564 31.6242C87.4411 31.6242 90.5432 32.4054 93.1628 33.968C95.8283 35.4846 97.8505 37.5297 99.2292 40.1033C100.608 42.631 101.297 45.3654 101.297 48.3067ZM98.1951 49.4786C98.333 46.1697 97.7356 43.3663 96.4028 41.0684C95.116 38.7705 93.3466 37.0701 91.0947 35.9671C88.8428 34.8182 86.407 34.2437 83.7875 34.2437C81.1679 34.2437 78.7322 34.8182 76.4802 35.9671C74.2743 37.0701 72.459 38.7705 71.0343 41.0684C69.6556 43.3663 68.9202 46.1697 68.8283 49.4786H98.1951ZM144.382 48.3067C144.382 49.9612 144.336 51.202 144.244 52.0293H111.913C112.005 55.3842 112.741 58.2106 114.119 60.5084C115.498 62.8063 117.313 64.5297 119.565 65.6786C121.817 66.8276 124.276 67.402 126.942 67.402C130.618 67.402 133.697 66.5059 136.179 64.7135C138.661 62.8752 140.223 60.3935 140.867 57.2684H144.107C143.371 61.0829 141.487 64.185 138.454 66.5748C135.421 68.9186 131.583 70.0906 126.942 70.0906C123.449 70.0906 120.324 69.3093 117.566 67.7467C114.809 66.1842 112.649 63.9552 111.086 61.0599C109.524 58.1186 108.742 54.6948 108.742 50.7884C108.742 46.882 109.501 43.4812 111.017 40.5859C112.58 37.6905 114.74 35.4846 117.497 33.968C120.255 32.4054 123.403 31.6242 126.942 31.6242C130.526 31.6242 133.628 32.4054 136.248 33.968C138.913 35.4846 140.936 37.5297 142.314 40.1033C143.693 42.631 144.382 45.3654 144.382 48.3067ZM141.28 49.4786C141.418 46.1697 140.821 43.3663 139.488 41.0684C138.201 38.7705 136.432 37.0701 134.18 35.9671C131.928 34.8182 129.492 34.2437 126.873 34.2437C124.253 34.2437 121.817 34.8182 119.565 35.9671C117.359 37.0701 115.544 38.7705 114.119 41.0684C112.741 43.3663 112.005 46.1697 111.913 49.4786H141.28ZM156.86 39.8276C157.779 37.0701 159.41 34.9791 161.754 33.5544C164.098 32.0837 167.085 31.3484 170.716 31.3484V34.5884H169.682C166.005 34.5884 162.949 35.6454 160.513 37.7595C158.078 39.8276 156.86 43.2284 156.86 47.962V69.5391H153.758V32.1067H156.86V39.8276ZM209.5 32.1067V69.5391H206.398V61.4046C205.341 64.254 203.572 66.4369 201.09 67.9535C198.654 69.4242 195.851 70.1595 192.68 70.1595C188.222 70.1595 184.568 68.8037 181.719 66.0923C178.915 63.3348 177.514 59.2676 177.514 53.8906V32.1067H180.547V53.6837C180.547 58.1416 181.673 61.5654 183.925 63.9552C186.177 66.2991 189.233 67.471 193.093 67.471C197.138 67.471 200.355 66.1842 202.744 63.6106C205.18 61.0369 206.398 57.2225 206.398 52.1671V32.1067H209.5ZM248.866 58.854H227.909L224.049 69.5391H217.431L234.803 21.7663H242.041L259.344 69.5391H252.726L248.866 58.854ZM247.074 53.7527L238.388 29.4871L229.702 53.7527H247.074ZM273.189 21.4905V69.5391H266.915V21.4905H273.189Z" fill="#013060"/>
</g>
<path d="M35.316 95.4995H29.4233L28.4108 98.375H26.001L31.0433 84.281H33.7163L38.7585 98.375H36.3285L35.316 95.4995ZM34.668 93.6162L32.3798 87.0755L30.0713 93.6162H34.668ZM43.2594 84.3012V98.375H40.9509V84.3012H43.2594ZM53.859 88.8777C54.2505 88.3377 54.7837 87.899 55.4587 87.5615C56.1472 87.2105 56.91 87.035 57.747 87.035C58.7325 87.035 59.6235 87.2712 60.42 87.7437C61.2165 88.2162 61.8442 88.8912 62.3032 89.7687C62.7622 90.6327 62.9917 91.625 62.9917 92.7455C62.9917 93.866 62.7622 94.8717 62.3032 95.7627C61.8442 96.6402 61.2097 97.3287 60.3997 97.8282C59.6032 98.3143 58.719 98.5573 57.747 98.5573C56.883 98.5573 56.1135 98.3885 55.4385 98.051C54.777 97.7135 54.2505 97.2815 53.859 96.755V98.375H51.5505V83.39H53.859V88.8777ZM60.6427 92.7455C60.6427 91.976 60.4807 91.3145 60.1567 90.761C59.8462 90.194 59.4277 89.7687 58.9012 89.4852C58.3882 89.1882 57.8347 89.0397 57.2407 89.0397C56.6602 89.0397 56.1067 89.1882 55.5802 89.4852C55.0672 89.7822 54.6487 90.2142 54.3247 90.7812C54.0142 91.3482 53.859 92.0165 53.859 92.786C53.859 93.5555 54.0142 94.2305 54.3247 94.811C54.6487 95.378 55.0672 95.81 55.5802 96.107C56.1067 96.404 56.6602 96.5525 57.2407 96.5525C57.8347 96.5525 58.3882 96.404 58.9012 96.107C59.4277 95.7965 59.8462 95.351 60.1567 94.7705C60.4807 94.19 60.6427 93.515 60.6427 92.7455ZM75.3794 87.2173V98.375H73.0709V97.0587C72.7064 97.5177 72.2271 97.8822 71.6331 98.1522C71.0526 98.4087 70.4316 98.537 69.7701 98.537C68.8926 98.537 68.1029 98.3547 67.4009 97.9902C66.7124 97.6257 66.1656 97.0857 65.7606 96.3702C65.3691 95.6547 65.1734 94.7907 65.1734 93.7782V87.2173H67.4616V93.434C67.4616 94.433 67.7114 95.2025 68.2109 95.7425C68.7104 96.269 69.3921 96.5322 70.2561 96.5322C71.1201 96.5322 71.8019 96.269 72.3014 95.7425C72.8144 95.2025 73.0709 94.433 73.0709 93.434V87.2173H75.3794ZM79.5997 85.739C79.1812 85.739 78.8302 85.5972 78.5467 85.3137C78.2632 85.0302 78.1215 84.6792 78.1215 84.2607C78.1215 83.8422 78.2632 83.4912 78.5467 83.2077C78.8302 82.9242 79.1812 82.7825 79.5997 82.7825C80.0047 82.7825 80.349 82.9242 80.6325 83.2077C80.916 83.4912 81.0577 83.8422 81.0577 84.2607C81.0577 84.6792 80.916 85.0302 80.6325 85.3137C80.349 85.5972 80.0047 85.739 79.5997 85.739ZM80.7337 87.2173V98.375H78.4252V87.2173H80.7337ZM86.0731 83.39V98.375H83.7646V83.39H86.0731ZM91.7972 89.1005V95.2767C91.7972 95.6952 91.8917 95.999 92.0807 96.188C92.2832 96.3635 92.6207 96.4512 93.0932 96.4512H94.5107V98.375H92.6882C91.6487 98.375 90.8522 98.132 90.2987 97.646C89.7452 97.16 89.4685 96.3702 89.4685 95.2767V89.1005H88.1522V87.2173H89.4685V84.443H91.7972V87.2173H94.5107V89.1005H91.7972ZM106.576 89.1005H104.511V98.375H102.182V89.1005H100.866V87.2173H102.182V86.4275C102.182 85.145 102.52 84.2135 103.195 83.633C103.883 83.039 104.956 82.742 106.414 82.742V84.6657C105.712 84.6657 105.22 84.8007 104.936 85.0707C104.653 85.3272 104.511 85.7795 104.511 86.4275V87.2173H106.576V89.1005ZM113.462 98.5573C112.409 98.5573 111.457 98.321 110.607 97.8485C109.756 97.3625 109.088 96.6875 108.602 95.8235C108.116 94.946 107.873 93.9335 107.873 92.786C107.873 91.652 108.123 90.6462 108.622 89.7687C109.122 88.8912 109.804 88.2162 110.668 87.7437C111.532 87.2712 112.497 87.035 113.563 87.035C114.63 87.035 115.595 87.2712 116.459 87.7437C117.323 88.2162 118.005 88.8912 118.504 89.7687C119.004 90.6462 119.254 91.652 119.254 92.786C119.254 93.92 118.997 94.9257 118.484 95.8032C117.971 96.6807 117.269 97.3625 116.378 97.8485C115.501 98.321 114.529 98.5573 113.462 98.5573ZM113.462 96.5525C114.056 96.5525 114.61 96.4107 115.123 96.1272C115.649 95.8437 116.074 95.4185 116.398 94.8515C116.722 94.2845 116.884 93.596 116.884 92.786C116.884 91.976 116.729 91.2942 116.419 90.7407C116.108 90.1737 115.696 89.7485 115.183 89.465C114.67 89.1815 114.117 89.0397 113.523 89.0397C112.929 89.0397 112.375 89.1815 111.862 89.465C111.363 89.7485 110.965 90.1737 110.668 90.7407C110.371 91.2942 110.222 91.976 110.222 92.786C110.222 93.9875 110.526 94.919 111.133 95.5805C111.754 96.2285 112.531 96.5525 113.462 96.5525ZM123.844 88.8372C124.182 88.2702 124.627 87.8315 125.181 87.521C125.748 87.197 126.416 87.035 127.185 87.035V89.4245H126.598C125.694 89.4245 125.005 89.654 124.533 90.113C124.074 90.572 123.844 91.3685 123.844 92.5025V98.375H121.536V87.2173H123.844V88.8372ZM148.074 87.035C148.952 87.035 149.735 87.2172 150.423 87.5817C151.125 87.9462 151.672 88.4862 152.064 89.2017C152.469 89.9172 152.671 90.7812 152.671 91.7937V98.375H150.383V92.138C150.383 91.139 150.133 90.3762 149.634 89.8497C149.134 89.3097 148.452 89.0397 147.588 89.0397C146.724 89.0397 146.036 89.3097 145.523 89.8497C145.023 90.3762 144.774 91.139 144.774 92.138V98.375H142.485V92.138C142.485 91.139 142.236 90.3762 141.736 89.8497C141.237 89.3097 140.555 89.0397 139.691 89.0397C138.827 89.0397 138.138 89.3097 137.625 89.8497C137.126 90.3762 136.876 91.139 136.876 92.138V98.375H134.568V87.2173H136.876V88.493C137.254 88.034 137.733 87.6762 138.314 87.4197C138.894 87.1632 139.515 87.035 140.177 87.035C141.068 87.035 141.864 87.224 142.566 87.602C143.268 87.98 143.808 88.5267 144.186 89.2422C144.524 88.5672 145.05 88.034 145.766 87.6425C146.481 87.2375 147.251 87.035 148.074 87.035ZM165.835 92.5227C165.835 92.9412 165.808 93.3192 165.754 93.6567H157.229C157.296 94.5477 157.627 95.2632 158.221 95.8032C158.815 96.3432 159.544 96.6132 160.408 96.6132C161.65 96.6132 162.527 96.0935 163.04 95.054H165.531C165.194 96.08 164.579 96.9237 163.688 97.5852C162.811 98.2333 161.717 98.5573 160.408 98.5573C159.341 98.5573 158.383 98.321 157.532 97.8485C156.695 97.3625 156.034 96.6875 155.548 95.8235C155.075 94.946 154.839 93.9335 154.839 92.786C154.839 91.6385 155.069 90.6327 155.528 89.7687C156 88.8912 156.655 88.2162 157.492 87.7437C158.342 87.2712 159.314 87.035 160.408 87.035C161.461 87.035 162.399 87.2645 163.223 87.7235C164.046 88.1825 164.687 88.8305 165.146 89.6675C165.605 90.491 165.835 91.4427 165.835 92.5227ZM163.425 91.7937C163.412 90.9432 163.108 90.2615 162.514 89.7485C161.92 89.2355 161.184 88.979 160.307 88.979C159.51 88.979 158.828 89.2355 158.261 89.7485C157.694 90.248 157.357 90.9297 157.249 91.7937H163.425ZM172.597 92.7455C172.597 91.625 172.827 90.6327 173.286 89.7687C173.758 88.9047 174.393 88.2365 175.189 87.764C175.999 87.278 176.89 87.035 177.862 87.035C178.74 87.035 179.503 87.2105 180.151 87.5615C180.812 87.899 181.339 88.3242 181.73 88.8372V87.2173H184.059V98.375H181.73V96.7145C181.339 97.241 180.805 97.6797 180.13 98.0307C179.455 98.3818 178.686 98.5573 177.822 98.5573C176.863 98.5573 175.986 98.3143 175.189 97.8282C174.393 97.3287 173.758 96.6402 173.286 95.7627C172.827 94.8717 172.597 93.866 172.597 92.7455ZM181.73 92.786C181.73 92.0165 181.568 91.3482 181.244 90.7812C180.934 90.2142 180.522 89.7822 180.009 89.4852C179.496 89.1882 178.942 89.0397 178.348 89.0397C177.754 89.0397 177.201 89.1882 176.688 89.4852C176.175 89.7687 175.756 90.194 175.432 90.761C175.122 91.3145 174.967 91.976 174.967 92.7455C174.967 93.515 175.122 94.19 175.432 94.7705C175.756 95.351 176.175 95.7965 176.688 96.107C177.214 96.404 177.768 96.5525 178.348 96.5525C178.942 96.5525 179.496 96.404 180.009 96.107C180.522 95.81 180.934 95.378 181.244 94.811C181.568 94.2305 181.73 93.5555 181.73 92.786ZM192.721 87.035C193.598 87.035 194.381 87.2172 195.07 87.5817C195.772 87.9462 196.318 88.4862 196.71 89.2017C197.101 89.9172 197.297 90.7812 197.297 91.7937V98.375H195.009V92.138C195.009 91.139 194.759 90.3762 194.26 89.8497C193.76 89.3097 193.078 89.0397 192.214 89.0397C191.35 89.0397 190.662 89.3097 190.149 89.8497C189.649 90.3762 189.4 91.139 189.4 92.138V98.375H187.091V87.2173H189.4V88.493C189.778 88.034 190.257 87.6762 190.837 87.4197C191.431 87.1632 192.059 87.035 192.721 87.035ZM199.472 92.7455C199.472 91.625 199.702 90.6327 200.161 89.7687C200.633 88.9047 201.268 88.2365 202.064 87.764C202.874 87.278 203.772 87.035 204.757 87.035C205.486 87.035 206.202 87.197 206.904 87.521C207.619 87.8315 208.186 88.25 208.605 88.7765V83.39H210.934V98.375H208.605V96.6942C208.227 97.2342 207.7 97.6797 207.025 98.0307C206.364 98.3818 205.601 98.5573 204.737 98.5573C203.765 98.5573 202.874 98.3143 202.064 97.8282C201.268 97.3287 200.633 96.6402 200.161 95.7627C199.702 94.8717 199.472 93.866 199.472 92.7455ZM208.605 92.786C208.605 92.0165 208.443 91.3482 208.119 90.7812C207.808 90.2142 207.397 89.7822 206.884 89.4852C206.371 89.1882 205.817 89.0397 205.223 89.0397C204.629 89.0397 204.076 89.1882 203.563 89.4852C203.05 89.7687 202.631 90.194 202.307 90.761C201.997 91.3145 201.841 91.976 201.841 92.7455C201.841 93.515 201.997 94.19 202.307 94.7705C202.631 95.351 203.05 95.7965 203.563 96.107C204.089 96.404 204.643 96.5525 205.223 96.5525C205.817 96.5525 206.371 96.404 206.884 96.107C207.397 95.81 207.808 95.378 208.119 94.811C208.443 94.2305 208.605 93.5555 208.605 92.786ZM229.27 87.2173L222.426 103.62H220.036L222.304 98.1927L217.91 87.2173H220.482L223.62 95.7222L226.881 87.2173H229.27ZM235.852 98.5573C234.799 98.5573 233.847 98.321 232.997 97.8485C232.146 97.3625 231.478 96.6875 230.992 95.8235C230.506 94.946 230.263 93.9335 230.263 92.786C230.263 91.652 230.513 90.6462 231.012 89.7687C231.512 88.8912 232.193 88.2162 233.057 87.7437C233.921 87.2712 234.887 87.035 235.953 87.035C237.02 87.035 237.985 87.2712 238.849 87.7437C239.713 88.2162 240.395 88.8912 240.894 89.7687C241.394 90.6462 241.643 91.652 241.643 92.786C241.643 93.92 241.387 94.9257 240.874 95.8032C240.361 96.6807 239.659 97.3625 238.768 97.8485C237.89 98.321 236.918 98.5573 235.852 98.5573ZM235.852 96.5525C236.446 96.5525 236.999 96.4107 237.512 96.1272C238.039 95.8437 238.464 95.4185 238.788 94.8515C239.112 94.2845 239.274 93.596 239.274 92.786C239.274 91.976 239.119 91.2942 238.808 90.7407C238.498 90.1737 238.086 89.7485 237.573 89.465C237.06 89.1815 236.507 89.0397 235.913 89.0397C235.319 89.0397 234.765 89.1815 234.252 89.465C233.753 89.7485 233.354 90.1737 233.057 90.7407C232.76 91.2942 232.612 91.976 232.612 92.786C232.612 93.9875 232.916 94.919 233.523 95.5805C234.144 96.2285 234.92 96.5525 235.852 96.5525ZM254.03 87.2173V98.375H251.722V97.0587C251.357 97.5177 250.878 97.8822 250.284 98.1522C249.703 98.4087 249.082 98.537 248.421 98.537C247.543 98.537 246.754 98.3547 246.052 97.9902C245.363 97.6257 244.816 97.0857 244.411 96.3702C244.02 95.6547 243.824 94.7907 243.824 93.7782V87.2173H246.112V93.434C246.112 94.433 246.362 95.2025 246.862 95.7425C247.361 96.269 248.043 96.5322 248.907 96.5322C249.771 96.5322 250.453 96.269 250.952 95.7425C251.465 95.2025 251.722 94.433 251.722 93.434V87.2173H254.03Z" fill="#E97131"/>
<defs>
<clipPath id="clip0_2881_4467">
<rect width="278.438" height="79.7075" fill="white"/>
</clipPath>
</defs>
</svg>
